<?xml version="1.0" encoding="utf-8"?>
<!-- Generator: Adobe Illustrator 24.2.0, SVG Export Plug-In . SVG Version: 6.00 Build 0)  -->
<svg version="1.1" id="Layer_1" xmlns="http://www.w3.org/2000/svg" xmlns:xlink="http://www.w3.org/1999/xlink" x="0px" y="0px"
	 viewBox="0 0 523 100" style="enable-background:new 0 0 523 100;" xml:space="preserve">
<style type="text/css">
	.st0{fill:url(#SVGID_1_);}
	.st1{fill:url(#SVGID_2_);}
	.st2{fill:url(#SVGID_3_);}
	.st3{fill:url(#SVGID_4_);}
	.st4{fill:url(#SVGID_5_);}
	.st5{fill:url(#SVGID_6_);}
	.st6{fill:url(#SVGID_7_);}
	.st7{fill:url(#SVGID_8_);}
	.st8{fill:url(#SVGID_9_);}
	.st9{fill:url(#SVGID_10_);}
	.st10{fill:url(#SVGID_11_);}
	.st11{fill:url(#SVGID_12_);}
	.st12{fill:url(#SVGID_13_);}
</style>
<g id="Background">
</g>
<g id="Layer_1_1_">
	<g>
		<g>
			
				<radialGradient id="SVGID_1_" cx="96.3966" cy="-1600.9095" r="216.4473" gradientTransform="matrix(1 0 0 -1 0 -1499.2125)" gradientUnits="userSpaceOnUse">
				<stop  offset="0" style="stop-color:#29ABE2"/>
				<stop  offset="0.503" style="stop-color:#2E3192"/>
				<stop  offset="1" style="stop-color:#1B1464"/>
			</radialGradient>
			<path class="st0" d="M50,0C22.4,0,0,22.4,0,50s22.4,50,50,50s50-22.4,50-50S77.6,0,50,0z M74.4,38.9c0,0-0.5,9.9-3.6,19.8
				c-2.1,6.6-5.3,13.1-10.3,16.7c0,0-0.5,0.3-1.2,0.5c-1.5,0.3-3.8,0-5.1-4.7c0,0-0.5-2.1-1.2-4.3c-0.1-0.3-0.2-0.6-0.3-0.9
				c-0.4-1.2-0.9-2.3-1.4-3.1c-0.6-0.6-1.1-0.5-1.1-0.5c-0.7,0-1.3,0.5-1.7,1.1c-1.4,2.7-2.5,7.6-2.5,7.6c-1.3,4.8-3.8,5.1-5.2,4.7
				c-0.7-0.2-1.1-0.4-1.1-0.4c-5-3.6-8.3-10.1-10.3-16.7c-3.1-9.9-3.7-19.8-3.7-19.8c-0.8-10.3,3-13.5,6.1-14.4
				c1.9-0.6,3.5-0.3,3.5-0.3c5,0,9.6,2.7,11.9,4.3c-0.1,0.1-0.2,0.2-0.4,0.3c-1.2,1.1-2.6,2.1-4,3c-1.4,0.9-2.9,1.6-4.5,1.9
				c-1.6,0.4-3.4,0.5-5-0.1c1.5,0.9,3.3,1.2,5.1,1.1c1.8-0.1,3.6-0.5,5.3-1.1s3.4-1.4,4.9-2.3c0.1,0,0.1-0.1,0.2-0.1
				c0.7-0.4,1.4-0.9,2.2-1.4c0.3-0.1,0.5-0.3,0.8-0.5c0,0,0.1-0.1,0.2-0.2c1.1-0.9,6.9-5.1,13.1-5.1c0,0,1.6-0.3,3.5,0.3
				C71.4,25.4,75.2,28.6,74.4,38.9z"/>
		</g>
		<g>
			<radialGradient id="SVGID_2_" cx="157.8886" cy="96.6482" r="337.3254" gradientUnits="userSpaceOnUse">
				<stop  offset="0" style="stop-color:#1B1464"/>
				<stop  offset="0.497" style="stop-color:#2E3192"/>
				<stop  offset="1" style="stop-color:#29ABE2"/>
			</radialGradient>
			<path class="st1" d="M156.4,50.7c0,4.4-0.6,8.1-1.7,11.3c-1.1,3.1-2.8,5.7-4.9,7.6c-2.1,2-4.8,3.4-7.8,4.3s-6.7,1.4-11,1.4h-11.4
				c-0.8,0-1.5-0.2-2.1-0.7c-0.6-0.5-0.8-1.3-0.8-2.3V30.5c0-1.1,0.3-1.9,0.8-2.3c0.6-0.5,1.2-0.7,2.1-0.7h12.3
				c4.3,0,7.9,0.5,10.9,1.5c3,1,5.5,2.5,7.5,4.4s3.6,4.4,4.6,7.3C155.9,43.5,156.4,46.9,156.4,50.7z M146.4,51
				c0-2.3-0.3-4.4-0.8-6.3c-0.5-1.9-1.4-3.6-2.6-5.1c-1.2-1.4-2.7-2.5-4.5-3.3c-1.8-0.8-4.2-1.2-7.2-1.2h-4.9v32.5h5.1
				c2.7,0,4.9-0.3,6.7-1c1.8-0.7,3.3-1.7,4.6-3.1c1.2-1.4,2.1-3.1,2.7-5.2C146.1,56.2,146.4,53.8,146.4,51z"/>
			<radialGradient id="SVGID_3_" cx="157.8886" cy="96.6482" r="337.3254" gradientUnits="userSpaceOnUse">
				<stop  offset="0" style="stop-color:#1B1464"/>
				<stop  offset="0.497" style="stop-color:#2E3192"/>
				<stop  offset="1" style="stop-color:#29ABE2"/>
			</radialGradient>
			<path class="st2" d="M194.3,56.6c0,1.1-0.3,2-0.8,2.5c-0.5,0.5-1.2,0.8-2.1,0.8h-20.1c0,1.4,0.2,2.7,0.5,3.8
				c0.3,1.1,0.9,2.1,1.6,2.9c0.7,0.8,1.7,1.4,2.8,1.8c1.1,0.4,2.5,0.6,4.1,0.6c1.6,0,3.1-0.1,4.3-0.4c1.2-0.2,2.3-0.5,3.2-0.8
				c0.9-0.3,1.6-0.5,2.2-0.8c0.6-0.2,1.1-0.4,1.4-0.4c0.2,0,0.4,0,0.6,0.1c0.1,0.1,0.3,0.2,0.4,0.5c0.1,0.2,0.2,0.5,0.2,0.9
				c0,0.4,0.1,0.9,0.1,1.5c0,0.5,0,1,0,1.4c0,0.4-0.1,0.7-0.1,1c0,0.3-0.1,0.5-0.2,0.7c-0.1,0.2-0.2,0.4-0.4,0.5
				c-0.2,0.2-0.6,0.4-1.3,0.7c-0.7,0.3-1.6,0.6-2.7,0.9c-1.1,0.3-2.4,0.5-3.8,0.7c-1.4,0.2-3,0.3-4.6,0.3c-2.9,0-5.5-0.4-7.7-1.1
				c-2.2-0.7-4-1.9-5.5-3.4c-1.5-1.5-2.6-3.4-3.3-5.7c-0.7-2.3-1.1-5-1.1-8.1c0-2.9,0.4-5.6,1.1-7.9c0.8-2.4,1.9-4.3,3.3-6
				c1.5-1.6,3.2-2.9,5.3-3.8c2.1-0.9,4.4-1.3,7-1.3c2.8,0,5.1,0.4,7.1,1.2c2,0.8,3.6,1.9,4.8,3.4c1.3,1.4,2.2,3.1,2.8,5.1
				c0.6,2,0.9,4.1,0.9,6.4V56.6z M185.3,53.9c0.1-2.6-0.4-4.7-1.6-6.2c-1.1-1.5-2.9-2.2-5.2-2.2c-1.2,0-2.2,0.2-3.1,0.7
				c-0.9,0.4-1.6,1-2.2,1.8c-0.6,0.8-1,1.6-1.3,2.7c-0.3,1-0.5,2.1-0.5,3.3H185.3z"/>
			<radialGradient id="SVGID_4_" cx="157.8886" cy="96.6482" r="337.3254" gradientUnits="userSpaceOnUse">
				<stop  offset="0" style="stop-color:#1B1464"/>
				<stop  offset="0.497" style="stop-color:#2E3192"/>
				<stop  offset="1" style="stop-color:#29ABE2"/>
			</radialGradient>
			<path class="st3" d="M233.5,74c0,0.2-0.1,0.5-0.2,0.6c-0.1,0.2-0.4,0.3-0.7,0.5c-0.3,0.1-0.8,0.2-1.4,0.3
				c-0.6,0.1-1.3,0.1-2.2,0.1c-0.9,0-1.7,0-2.3-0.1c-0.6-0.1-1.1-0.2-1.4-0.3c-0.3-0.1-0.6-0.3-0.7-0.5c-0.1-0.2-0.2-0.4-0.2-0.6
				V55.2c0-1.6-0.1-2.9-0.4-3.8c-0.2-0.9-0.6-1.7-1-2.3c-0.4-0.7-1-1.2-1.7-1.5c-0.7-0.4-1.5-0.5-2.5-0.5c-1.2,0-2.4,0.4-3.6,1.3
				c-1.2,0.9-2.5,2.1-3.8,3.8V74c0,0.2-0.1,0.5-0.2,0.6s-0.4,0.3-0.8,0.5c-0.4,0.1-0.8,0.2-1.4,0.3c-0.6,0.1-1.3,0.1-2.3,0.1
				c-0.9,0-1.7,0-2.3-0.1c-0.6-0.1-1.1-0.2-1.4-0.3c-0.4-0.1-0.6-0.3-0.8-0.5S202,74.3,202,74v-33c0-0.2,0.1-0.5,0.2-0.6
				c0.1-0.2,0.3-0.3,0.7-0.5c0.3-0.1,0.7-0.2,1.2-0.3c0.5-0.1,1.1-0.1,1.9-0.1c0.8,0,1.4,0,2,0.1c0.5,0.1,0.9,0.2,1.2,0.3
				s0.5,0.3,0.6,0.5c0.1,0.2,0.2,0.4,0.2,0.6v3.8c1.8-2,3.7-3.5,5.6-4.4c1.9-1,3.9-1.5,5.9-1.5c2.2,0,4.1,0.4,5.7,1.1
				c1.5,0.7,2.8,1.7,3.7,3c0.9,1.3,1.6,2.8,2.1,4.5c0.4,1.7,0.6,3.7,0.6,6.1V74z"/>
			<radialGradient id="SVGID_5_" cx="157.8886" cy="96.6482" r="337.3254" gradientUnits="userSpaceOnUse">
				<stop  offset="0" style="stop-color:#1B1464"/>
				<stop  offset="0.497" style="stop-color:#2E3192"/>
				<stop  offset="1" style="stop-color:#29ABE2"/>
			</radialGradient>
			<path class="st4" d="M261.4,70.8c0,1.1-0.1,1.9-0.2,2.5c-0.1,0.6-0.3,1-0.5,1.2c-0.2,0.2-0.5,0.4-1,0.6c-0.4,0.2-0.9,0.3-1.5,0.5
				c-0.6,0.1-1.2,0.2-1.9,0.3c-0.7,0.1-1.4,0.1-2.1,0.1c-1.8,0-3.5-0.2-4.8-0.7c-1.4-0.5-2.5-1.2-3.4-2.2c-0.9-1-1.5-2.2-2-3.7
				c-0.4-1.5-0.6-3.2-0.6-5.2V47.4h-4c-0.5,0-0.8-0.3-1.1-0.9c-0.2-0.6-0.4-1.5-0.4-2.9c0-0.7,0-1.3,0.1-1.8
				c0.1-0.5,0.2-0.9,0.3-1.2c0.1-0.3,0.3-0.5,0.5-0.6c0.2-0.1,0.4-0.2,0.6-0.2h3.9v-7.4c0-0.2,0.1-0.5,0.2-0.7
				c0.1-0.2,0.4-0.4,0.7-0.5c0.4-0.1,0.8-0.2,1.4-0.3c0.6-0.1,1.3-0.1,2.2-0.1c0.9,0,1.7,0,2.3,0.1c0.6,0.1,1.1,0.2,1.4,0.3
				c0.3,0.1,0.6,0.3,0.7,0.5c0.1,0.2,0.2,0.4,0.2,0.7v7.4h7.2c0.2,0,0.5,0.1,0.6,0.2c0.2,0.1,0.3,0.3,0.5,0.6
				c0.1,0.3,0.2,0.7,0.3,1.2c0.1,0.5,0.1,1.1,0.1,1.8c0,1.4-0.1,2.3-0.4,2.9c-0.2,0.6-0.6,0.9-1.1,0.9h-7.2v15.5
				c0,1.8,0.3,3.1,0.9,4c0.6,0.9,1.6,1.3,3,1.3c0.5,0,0.9,0,1.3-0.1c0.4-0.1,0.7-0.2,1.1-0.3c0.3-0.1,0.6-0.2,0.8-0.3
				c0.2-0.1,0.4-0.1,0.6-0.1c0.1,0,0.3,0,0.4,0.1c0.1,0.1,0.2,0.3,0.3,0.5c0.1,0.3,0.1,0.6,0.2,1.1
				C261.4,69.5,261.4,70.1,261.4,70.8z"/>
			<radialGradient id="SVGID_6_" cx="157.8886" cy="96.6482" r="337.3254" gradientUnits="userSpaceOnUse">
				<stop  offset="0" style="stop-color:#1B1464"/>
				<stop  offset="0.497" style="stop-color:#2E3192"/>
				<stop  offset="1" style="stop-color:#29ABE2"/>
			</radialGradient>
			<path class="st5" d="M295.5,74.2c0,0.3-0.1,0.6-0.4,0.8c-0.2,0.2-0.6,0.3-1.2,0.4s-1.3,0.1-2.3,0.1c-1.1,0-1.9,0-2.4-0.1
				c-0.5-0.1-0.9-0.2-1.1-0.4c-0.2-0.2-0.3-0.5-0.3-0.8v-2.6c-1.4,1.5-2.9,2.6-4.6,3.4c-1.7,0.8-3.7,1.2-5.8,1.2
				c-1.8,0-3.4-0.2-4.8-0.7c-1.5-0.5-2.7-1.1-3.8-2c-1.1-0.9-1.9-2-2.5-3.3s-0.9-2.9-0.9-4.7c0-1.9,0.4-3.6,1.1-5
				c0.8-1.4,1.9-2.6,3.4-3.5c1.5-0.9,3.3-1.6,5.6-2.1c2.2-0.4,4.8-0.7,7.7-0.7h3.2v-2c0-1-0.1-1.9-0.3-2.7c-0.2-0.8-0.6-1.4-1-1.9
				c-0.5-0.5-1.1-0.9-1.9-1.1c-0.8-0.2-1.8-0.4-3-0.4c-1.6,0-2.9,0.2-4.2,0.5c-1.2,0.3-2.3,0.7-3.2,1.1c-0.9,0.4-1.7,0.8-2.3,1.1
				c-0.6,0.3-1.1,0.5-1.5,0.5c-0.3,0-0.5-0.1-0.7-0.3c-0.2-0.2-0.4-0.4-0.5-0.7c-0.1-0.3-0.2-0.7-0.3-1.2c-0.1-0.5-0.1-1-0.1-1.6
				c0-0.8,0.1-1.4,0.2-1.8c0.1-0.4,0.4-0.8,0.7-1.2c0.3-0.4,0.9-0.8,1.8-1.2c0.9-0.4,1.9-0.8,3-1.2c1.2-0.4,2.4-0.7,3.8-0.9
				c1.4-0.2,2.8-0.4,4.2-0.4c2.6,0,4.8,0.3,6.6,0.8c1.8,0.5,3.3,1.3,4.5,2.3c1.2,1,2,2.4,2.6,4c0.5,1.7,0.8,3.6,0.8,5.9V74.2z
				 M286.4,60h-3.5c-1.5,0-2.8,0.1-3.8,0.3c-1.1,0.2-1.9,0.6-2.6,1c-0.7,0.4-1.2,1-1.5,1.6c-0.3,0.6-0.5,1.3-0.5,2.2
				c0,1.4,0.4,2.5,1.3,3.3c0.9,0.8,2.1,1.2,3.6,1.2c1.3,0,2.5-0.3,3.6-1c1.1-0.7,2.2-1.6,3.3-2.9V60z"/>
			<radialGradient id="SVGID_7_" cx="157.8886" cy="96.6482" r="337.3254" gradientUnits="userSpaceOnUse">
				<stop  offset="0" style="stop-color:#1B1464"/>
				<stop  offset="0.497" style="stop-color:#2E3192"/>
				<stop  offset="1" style="stop-color:#29ABE2"/>
			</radialGradient>
			<path class="st6" d="M314.1,74c0,0.2-0.1,0.5-0.2,0.6c-0.1,0.2-0.4,0.3-0.8,0.5c-0.4,0.1-0.8,0.2-1.4,0.3
				c-0.6,0.1-1.3,0.1-2.3,0.1c-0.9,0-1.7,0-2.3-0.1c-0.6-0.1-1.1-0.2-1.4-0.3c-0.4-0.1-0.6-0.3-0.8-0.5s-0.2-0.4-0.2-0.6V25.4
				c0-0.2,0.1-0.5,0.2-0.7c0.1-0.2,0.4-0.4,0.8-0.5c0.4-0.1,0.8-0.2,1.4-0.3c0.6-0.1,1.3-0.1,2.3-0.1c0.9,0,1.7,0,2.3,0.1
				c0.6,0.1,1.1,0.2,1.4,0.3c0.4,0.1,0.6,0.3,0.8,0.5c0.1,0.2,0.2,0.4,0.2,0.7V74z"/>
			<radialGradient id="SVGID_8_" cx="157.8886" cy="96.6482" r="337.3254" gradientUnits="userSpaceOnUse">
				<stop  offset="0" style="stop-color:#1B1464"/>
				<stop  offset="0.497" style="stop-color:#2E3192"/>
				<stop  offset="1" style="stop-color:#29ABE2"/>
			</radialGradient>
			<path class="st7" d="M361.3,74c0,0.2-0.1,0.5-0.2,0.7c-0.2,0.2-0.4,0.4-0.8,0.5c-0.4,0.1-0.9,0.2-1.5,0.3
				c-0.6,0.1-1.4,0.1-2.3,0.1c-1,0-1.8,0-2.4-0.1c-0.6-0.1-1.1-0.2-1.5-0.3c-0.4-0.1-0.6-0.3-0.8-0.5c-0.2-0.2-0.2-0.4-0.2-0.7V54.6
				h-17.9V74c0,0.2-0.1,0.5-0.2,0.7c-0.1,0.2-0.4,0.4-0.8,0.5c-0.4,0.1-0.9,0.2-1.5,0.3c-0.6,0.1-1.4,0.1-2.4,0.1
				c-0.9,0-1.7,0-2.3-0.1c-0.6-0.1-1.1-0.2-1.5-0.3c-0.4-0.1-0.6-0.3-0.8-0.5c-0.2-0.2-0.2-0.4-0.2-0.7V28.8c0-0.2,0.1-0.5,0.2-0.7
				c0.2-0.2,0.4-0.4,0.8-0.5c0.4-0.1,0.9-0.2,1.5-0.3c0.6-0.1,1.4-0.1,2.3-0.1c1,0,1.7,0,2.4,0.1c0.6,0.1,1.1,0.2,1.5,0.3
				c0.4,0.1,0.6,0.3,0.8,0.5c0.1,0.2,0.2,0.4,0.2,0.7v17.6h17.9V28.8c0-0.2,0.1-0.5,0.2-0.7c0.2-0.2,0.4-0.4,0.8-0.5
				c0.4-0.1,0.9-0.2,1.5-0.3c0.6-0.1,1.4-0.1,2.4-0.1c0.9,0,1.7,0,2.3,0.1c0.6,0.1,1.1,0.2,1.5,0.3c0.4,0.1,0.6,0.3,0.8,0.5
				c0.2,0.2,0.2,0.4,0.2,0.7V74z"/>
			<radialGradient id="SVGID_9_" cx="157.8886" cy="96.6482" r="337.3254" gradientUnits="userSpaceOnUse">
				<stop  offset="0" style="stop-color:#1B1464"/>
				<stop  offset="0.497" style="stop-color:#2E3192"/>
				<stop  offset="1" style="stop-color:#29ABE2"/>
			</radialGradient>
			<path class="st8" d="M401.6,56.6c0,1.1-0.3,2-0.8,2.5c-0.5,0.5-1.2,0.8-2.1,0.8h-20.1c0,1.4,0.2,2.7,0.5,3.8
				c0.3,1.1,0.9,2.1,1.6,2.9c0.7,0.8,1.7,1.4,2.8,1.8c1.1,0.4,2.5,0.6,4.1,0.6c1.6,0,3.1-0.1,4.3-0.4c1.2-0.2,2.3-0.5,3.2-0.8
				c0.9-0.3,1.6-0.5,2.2-0.8c0.6-0.2,1.1-0.4,1.4-0.4c0.2,0,0.4,0,0.6,0.1c0.1,0.1,0.3,0.2,0.4,0.5c0.1,0.2,0.2,0.5,0.2,0.9
				c0,0.4,0.1,0.9,0.1,1.5c0,0.5,0,1,0,1.4c0,0.4-0.1,0.7-0.1,1c0,0.3-0.1,0.5-0.2,0.7c-0.1,0.2-0.2,0.4-0.4,0.5
				c-0.2,0.2-0.6,0.4-1.3,0.7c-0.7,0.3-1.6,0.6-2.7,0.9c-1.1,0.3-2.4,0.5-3.8,0.7c-1.4,0.2-3,0.3-4.6,0.3c-2.9,0-5.5-0.4-7.7-1.1
				s-4-1.9-5.5-3.4c-1.5-1.5-2.6-3.4-3.3-5.7c-0.7-2.3-1.1-5-1.1-8.1c0-2.9,0.4-5.6,1.1-7.9s1.9-4.3,3.3-6c1.5-1.6,3.2-2.9,5.3-3.8
				c2.1-0.9,4.4-1.3,7-1.3c2.8,0,5.1,0.4,7.1,1.2c2,0.8,3.6,1.9,4.8,3.4c1.3,1.4,2.2,3.1,2.8,5.1c0.6,2,0.9,4.1,0.9,6.4V56.6z
				 M392.6,53.9c0.1-2.6-0.4-4.7-1.6-6.2s-2.9-2.2-5.2-2.2c-1.2,0-2.2,0.2-3.1,0.7c-0.9,0.4-1.6,1-2.2,1.8c-0.6,0.8-1,1.6-1.3,2.7
				c-0.3,1-0.5,2.1-0.5,3.3H392.6z"/>
			<radialGradient id="SVGID_10_" cx="157.8886" cy="96.6482" r="337.3254" gradientUnits="userSpaceOnUse">
				<stop  offset="0" style="stop-color:#1B1464"/>
				<stop  offset="0.497" style="stop-color:#2E3192"/>
				<stop  offset="1" style="stop-color:#29ABE2"/>
			</radialGradient>
			<path class="st9" d="M437.4,74.2c0,0.3-0.1,0.6-0.4,0.8c-0.2,0.2-0.6,0.3-1.2,0.4s-1.3,0.1-2.3,0.1c-1.1,0-1.9,0-2.4-0.1
				c-0.5-0.1-0.9-0.2-1.1-0.4c-0.2-0.2-0.3-0.5-0.3-0.8v-2.6c-1.4,1.5-2.9,2.6-4.6,3.4c-1.7,0.8-3.7,1.2-5.8,1.2
				c-1.8,0-3.4-0.2-4.8-0.7c-1.5-0.5-2.7-1.1-3.8-2c-1.1-0.9-1.9-2-2.5-3.3s-0.9-2.9-0.9-4.7c0-1.9,0.4-3.6,1.1-5
				c0.8-1.4,1.9-2.6,3.4-3.5c1.5-0.9,3.3-1.6,5.6-2.1c2.2-0.4,4.8-0.7,7.7-0.7h3.2v-2c0-1-0.1-1.9-0.3-2.7c-0.2-0.8-0.6-1.4-1-1.9
				c-0.5-0.5-1.1-0.9-1.9-1.1c-0.8-0.2-1.8-0.4-3-0.4c-1.6,0-2.9,0.2-4.2,0.5c-1.2,0.3-2.3,0.7-3.2,1.1c-0.9,0.4-1.7,0.8-2.3,1.1
				c-0.6,0.3-1.1,0.5-1.5,0.5c-0.3,0-0.5-0.1-0.7-0.3c-0.2-0.2-0.4-0.4-0.5-0.7c-0.1-0.3-0.2-0.7-0.3-1.2c-0.1-0.5-0.1-1-0.1-1.6
				c0-0.8,0.1-1.4,0.2-1.8c0.1-0.4,0.4-0.8,0.7-1.2c0.3-0.4,0.9-0.8,1.8-1.2c0.9-0.4,1.9-0.8,3-1.2c1.2-0.4,2.4-0.7,3.8-0.9
				c1.4-0.2,2.8-0.4,4.2-0.4c2.6,0,4.8,0.3,6.6,0.8c1.8,0.5,3.3,1.3,4.5,2.3c1.2,1,2,2.4,2.6,4c0.5,1.7,0.8,3.6,0.8,5.9V74.2z
				 M428.2,60h-3.5c-1.5,0-2.8,0.1-3.8,0.3c-1.1,0.2-1.9,0.6-2.6,1c-0.7,0.4-1.2,1-1.5,1.6c-0.3,0.6-0.5,1.3-0.5,2.2
				c0,1.4,0.4,2.5,1.3,3.3c0.9,0.8,2.1,1.2,3.6,1.2c1.3,0,2.5-0.3,3.6-1c1.1-0.7,2.2-1.6,3.3-2.9V60z"/>
			<radialGradient id="SVGID_11_" cx="157.8886" cy="96.6482" r="337.3254" gradientUnits="userSpaceOnUse">
				<stop  offset="0" style="stop-color:#1B1464"/>
				<stop  offset="0.497" style="stop-color:#2E3192"/>
				<stop  offset="1" style="stop-color:#29ABE2"/>
			</radialGradient>
			<path class="st10" d="M456,74c0,0.2-0.1,0.5-0.2,0.6c-0.1,0.2-0.4,0.3-0.8,0.5c-0.4,0.1-0.8,0.2-1.4,0.3
				c-0.6,0.1-1.3,0.1-2.3,0.1c-0.9,0-1.7,0-2.3-0.1c-0.6-0.1-1.1-0.2-1.4-0.3c-0.4-0.1-0.6-0.3-0.8-0.5c-0.1-0.2-0.2-0.4-0.2-0.6
				V25.4c0-0.2,0.1-0.5,0.2-0.7c0.1-0.2,0.4-0.4,0.8-0.5c0.4-0.1,0.8-0.2,1.4-0.3c0.6-0.1,1.3-0.1,2.3-0.1c0.9,0,1.7,0,2.3,0.1
				c0.6,0.1,1.1,0.2,1.4,0.3c0.4,0.1,0.6,0.3,0.8,0.5c0.1,0.2,0.2,0.4,0.2,0.7V74z"/>
			<radialGradient id="SVGID_12_" cx="157.8886" cy="96.6482" r="337.3254" gradientUnits="userSpaceOnUse">
				<stop  offset="0" style="stop-color:#1B1464"/>
				<stop  offset="0.497" style="stop-color:#2E3192"/>
				<stop  offset="1" style="stop-color:#29ABE2"/>
			</radialGradient>
			<path class="st11" d="M484.8,70.8c0,1.1-0.1,1.9-0.2,2.5c-0.1,0.6-0.3,1-0.5,1.2c-0.2,0.2-0.5,0.4-1,0.6
				c-0.4,0.2-0.9,0.3-1.5,0.5c-0.6,0.1-1.2,0.2-1.9,0.3c-0.7,0.1-1.4,0.1-2.1,0.1c-1.8,0-3.5-0.2-4.8-0.7c-1.4-0.5-2.5-1.2-3.4-2.2
				c-0.9-1-1.5-2.2-2-3.7c-0.4-1.5-0.6-3.2-0.6-5.2V47.4h-4c-0.5,0-0.8-0.3-1.1-0.9c-0.2-0.6-0.4-1.5-0.4-2.9c0-0.7,0-1.3,0.1-1.8
				c0.1-0.5,0.2-0.9,0.3-1.2c0.1-0.3,0.3-0.5,0.5-0.6c0.2-0.1,0.4-0.2,0.6-0.2h3.9v-7.4c0-0.2,0.1-0.5,0.2-0.7
				c0.1-0.2,0.4-0.4,0.7-0.5c0.4-0.1,0.8-0.2,1.4-0.3c0.6-0.1,1.3-0.1,2.2-0.1c0.9,0,1.7,0,2.3,0.1c0.6,0.1,1.1,0.2,1.4,0.3
				c0.3,0.1,0.6,0.3,0.7,0.5c0.1,0.2,0.2,0.4,0.2,0.7v7.4h7.2c0.2,0,0.5,0.1,0.6,0.2c0.2,0.1,0.3,0.3,0.5,0.6
				c0.1,0.3,0.2,0.7,0.3,1.2c0.1,0.5,0.1,1.1,0.1,1.8c0,1.4-0.1,2.3-0.4,2.9c-0.2,0.6-0.6,0.9-1.1,0.9h-7.2v15.5
				c0,1.8,0.3,3.1,0.9,4c0.6,0.9,1.6,1.3,3,1.3c0.5,0,0.9,0,1.3-0.1c0.4-0.1,0.7-0.2,1.1-0.3c0.3-0.1,0.6-0.2,0.8-0.3
				c0.2-0.1,0.4-0.1,0.6-0.1c0.1,0,0.3,0,0.4,0.1c0.1,0.1,0.2,0.3,0.3,0.5c0.1,0.3,0.1,0.6,0.2,1.1
				C484.7,69.5,484.8,70.1,484.8,70.8z"/>
			<radialGradient id="SVGID_13_" cx="157.8886" cy="96.6482" r="337.3254" gradientUnits="userSpaceOnUse">
				<stop  offset="0" style="stop-color:#1B1464"/>
				<stop  offset="0.497" style="stop-color:#2E3192"/>
				<stop  offset="1" style="stop-color:#29ABE2"/>
			</radialGradient>
			<path class="st12" d="M523,74c0,0.2-0.1,0.5-0.2,0.6c-0.1,0.2-0.4,0.3-0.7,0.5c-0.3,0.1-0.8,0.2-1.4,0.3
				c-0.6,0.1-1.3,0.1-2.2,0.1c-0.9,0-1.7,0-2.3-0.1c-0.6-0.1-1.1-0.2-1.4-0.3c-0.3-0.1-0.6-0.3-0.7-0.5c-0.1-0.2-0.2-0.4-0.2-0.6
				V55.2c0-1.6-0.1-2.9-0.4-3.8c-0.2-0.9-0.6-1.7-1-2.3c-0.4-0.7-1-1.2-1.7-1.5c-0.7-0.4-1.5-0.5-2.5-0.5c-1.2,0-2.4,0.4-3.6,1.3
				c-1.2,0.9-2.5,2.1-3.8,3.8V74c0,0.2-0.1,0.5-0.2,0.6c-0.1,0.2-0.4,0.3-0.8,0.5c-0.4,0.1-0.8,0.2-1.4,0.3
				c-0.6,0.1-1.3,0.1-2.3,0.1c-0.9,0-1.7,0-2.3-0.1c-0.6-0.1-1.1-0.2-1.4-0.3c-0.4-0.1-0.6-0.3-0.8-0.5c-0.1-0.2-0.2-0.4-0.2-0.6
				V25.4c0-0.2,0.1-0.5,0.2-0.7c0.1-0.2,0.4-0.4,0.8-0.5c0.4-0.1,0.8-0.2,1.4-0.3c0.6-0.1,1.3-0.1,2.3-0.1c0.9,0,1.7,0,2.3,0.1
				c0.6,0.1,1.1,0.2,1.4,0.3c0.4,0.1,0.6,0.3,0.8,0.5c0.1,0.2,0.2,0.4,0.2,0.7v18.2c1.6-1.6,3.2-2.8,4.9-3.5
				c1.7-0.8,3.4-1.2,5.2-1.2c2.2,0,4.1,0.4,5.7,1.1c1.5,0.7,2.8,1.8,3.7,3c0.9,1.3,1.6,2.8,2.1,4.5c0.4,1.7,0.6,3.8,0.6,6.2V74z"/>
		</g>
	</g>
</g>
</svg>
