<?xml version="1.0" encoding="utf-8"?>
<!-- Generator: Adobe Illustrator 24.2.0, SVG Export Plug-In . SVG Version: 6.00 Build 0)  -->
<svg version="1.1" id="Layer_1" xmlns="http://www.w3.org/2000/svg" xmlns:xlink="http://www.w3.org/1999/xlink" x="0px" y="0px"
	 viewBox="0 0 283.5 283.5" style="enable-background:new 0 0 283.5 283.5;" xml:space="preserve">
<style type="text/css">
	.st0{fill:#FFFFFF;}
</style>
<g id="Background">
</g>
<path class="st0" d="M141.7,11.2c-72,0-130.5,58.5-130.5,130.5s58.5,130.5,130.5,130.5s130.5-58.5,130.5-130.5
	S213.8,11.2,141.7,11.2z M205.4,112.8c0,0-1.3,25.8-9.4,51.7c-5.5,17.2-13.8,34.2-26.9,43.6c0,0-1.3,0.8-3.1,1.3
	c-3.9,0.8-9.9,0-13.3-12.3c0,0-1.3-5.5-3.1-11.2c-0.3-0.8-0.5-1.6-0.8-2.3c-1-3.1-2.3-6-3.7-8.1c-1.6-1.6-2.9-1.3-2.9-1.3
	c-1.8,0-3.4,1.3-4.4,2.9c-3.7,7-6.5,19.8-6.5,19.8c-3.4,12.5-9.9,13.3-13.6,12.3c-1.8-0.5-2.9-1-2.9-1c-13-9.4-21.7-26.4-26.9-43.6
	c-8.1-25.8-9.7-51.7-9.7-51.7c-2.1-26.9,7.8-35.2,15.9-37.6c5-1.6,9.1-0.8,9.1-0.8c13.1,0,25.1,7,31.1,11.2c-0.3,0.3-0.5,0.5-1,0.8
	c-3.1,2.9-6.8,5.5-10.4,7.8c-3.7,2.3-7.6,4.2-11.7,5c-4.2,1-8.9,1.3-13-0.3c3.9,2.3,8.6,3.1,13.3,2.9c4.7-0.3,9.4-1.3,13.8-2.9
	s8.9-3.7,12.8-6c0.3,0,0.3-0.3,0.5-0.3c1.8-1,3.7-2.3,5.7-3.7c0.8-0.3,1.3-0.8,2.1-1.3c0,0,0.3-0.3,0.5-0.5
	c2.9-2.3,18-13.3,34.2-13.3c0,0,4.2-0.8,9.1,0.8C197.6,77.5,207.5,85.9,205.4,112.8z"/>
</svg>
